<?xml version="1.0" encoding="UTF-8"?>
<svg width="22px" height="19px" viewBox="0 0 22 19" version="1.1" xmlns="http://www.w3.org/2000/svg" xmlns:xlink="http://www.w3.org/1999/xlink">
    <!-- Generator: Sketch 46 (44423) - http://www.bohemiancoding.com/sketch -->
    <title>external-link</title>
    <desc>Created with Sketch.</desc>
    <defs></defs>
    <g id="Page-1" stroke="none" stroke-width="1" fill="none" fill-rule="evenodd">
        <g id="Standard---Desktop" transform="translate(-299.000000, -2569.000000)" stroke="#015294" stroke-width="0.6" fill="#015294">
            <g id="Testimonials" transform="translate(0.000000, 1910.000000)">
                <g id="card" transform="translate(75.000000, 223.000000)">
                    <g id="CTA" transform="translate(127.000000, 434.000000)">
                        <path d="M113.714313,16.8125476 C113.714313,17.6905279 113.399988,18.4413682 112.771243,19.0648781 C112.142498,19.6882927 111.385449,20 110.5,20 L101.214313,20 C100.328864,20 99.5718155,19.6882927 98.9430701,19.0648781 C98.3144207,18.4413682 98,17.6905279 98,16.8125476 L98,7.60418254 C98,6.72610697 98.3144207,5.97536189 98.9430701,5.35185206 C99.5718155,4.72834223 100.328864,4.41663492 101.214313,4.41663492 L109.07147,4.41663492 C109.175572,4.41663492 109.26114,4.44987227 109.328173,4.51625173 C109.39511,4.5826312 109.428626,4.66748644 109.428626,4.77081746 L109.428626,5.47918254 C109.428626,5.58241832 109.39511,5.66727356 109.328173,5.73374827 C109.26114,5.80012772 109.175572,5.83326984 109.07147,5.83326984 L101.214313,5.83326984 C100.723283,5.83326984 100.302839,6.00669452 99.953173,6.35344866 C99.6034112,6.70029803 99.4286263,7.11714583 99.4286263,7.60418254 L99.4286263,16.8125476 C99.4286263,17.299489 99.6034112,17.7164321 99.953173,18.0631862 C100.302839,18.4100356 100.723283,18.5833651 101.214313,18.5833651 L110.5,18.5833651 C110.991126,18.5833651 111.411474,18.4100356 111.76114,18.0631862 C112.110902,17.7164321 112.285783,17.299489 112.285783,16.8125476 L112.285783,13.2708175 C112.285783,13.1675817 112.319203,13.0827264 112.38614,13.0162517 C112.453173,12.9498723 112.538741,12.9166349 112.642843,12.9166349 L113.357157,12.9166349 C113.461355,12.9166349 113.546827,12.9498723 113.61386,13.0162517 C113.680797,13.0827264 113.714313,13.1675817 113.714313,13.2708175 L113.714313,16.8125476 Z M118,3.70826984 L118,9.375 C118,9.56680522 117.929318,9.7328015 117.787953,9.87298884 C117.646589,10.0132714 117.479199,10.0832698 117.285783,10.0832698 C117.092271,10.0832698 116.924881,10.0132714 116.783516,9.87298884 L114.819203,7.92512772 L107.54239,15.1412518 C107.468059,15.2150596 107.382395,15.2520111 107.285783,15.2520111 C107.188979,15.2520111 107.103411,15.2150596 107.02908,15.1412518 L105.756703,13.8795657 C105.682276,13.8057578 105.64511,13.7209026 105.64511,13.625 C105.64511,13.5290974 105.682276,13.4442421 105.756703,13.3704343 L113.033516,6.15431027 L111.069203,4.20635392 C110.927839,4.06616658 110.857157,3.9001703 110.857157,3.70826984 C110.857157,3.51646462 110.927839,3.35046834 111.069203,3.210281 C111.210568,3.06999843 111.377958,3 111.57147,3 L117.285783,3 C117.479199,3 117.646589,3.06999843 117.787953,3.210281 C117.929318,3.35046834 118,3.51646462 118,3.70826984 Z" id="external-link"></path>
                    </g>
                </g>
            </g>
        </g>
    </g>
</svg>