<?xml version="1.0" encoding="UTF-8"?>
<svg width="66px" height="76px" viewBox="0 0 66 76" version="1.1" xmlns="http://www.w3.org/2000/svg" xmlns:xlink="http://www.w3.org/1999/xlink">
    <!-- Generator: Sketch 45.2 (43514) - http://www.bohemiancoding.com/sketch -->
    <title>icon-expert</title>
    <desc>Created with Sketch.</desc>
    <defs></defs>
    <g id="Page-1" stroke="none" stroke-width="1" fill="none" fill-rule="evenodd">
        <g id="Standard---Desktop" transform="translate(-627.000000, -2923.000000)" fill="#FEFEFE">
            <g id="Additional-Resources" transform="translate(0.000000, 2709.000000)">
                <g id="Talk-to-Expert-Icon" transform="translate(553.000000, 182.000000)">
                    <path d="M106.699622,32.0001117 C117.531327,32.0001117 126.313489,40.7794818 126.313489,51.6123033 C126.483214,59.1622824 124.361091,65.9819967 124.535841,70.5595519 L114.202704,70.5595519 C114.237319,69.6461624 114.314923,68.7042993 114.442217,67.6368172 C117.271156,64.0575141 118.664131,60.2213899 118.664131,55.1195849 C118.664131,52.5563996 118.17673,49.4438408 117.328104,47.3993223 C113.669521,45.0577847 110.324707,45.9170184 110.324707,45.9170184 C111.935979,48.9447147 115.738047,50.2282614 115.738047,50.2282614 C105.891753,52.68816 99.3952981,50.4085944 95.7674223,48.1887677 C95.1114121,50.0423453 94.7434881,53.0627837 94.7434881,55.2965681 C95.3341765,57.525886 97.2056199,62.4300505 102.226471,63.5796037 C102.776961,62.8766958 103.727198,62.4099515 104.810871,62.4099515 C106.51594,62.4099515 107.896632,63.5578297 107.896632,64.9714618 C107.896632,66.385094 106.51594,67.5335305 104.810871,67.5335305 C103.47931,67.5335305 102.353764,66.827831 101.921635,65.8457699 C99.3377925,65.3109122 97.4200096,63.9732098 96.0074941,62.3948772 C96.7042607,64.2082568 97.6751557,65.8848513 98.9408366,67.5167813 C99.0776217,68.6317194 99.1591345,69.6121057 99.196541,70.5595519 L88.4162003,70.5595519 C88.6384063,65.9741804 86.9009564,59.1366003 87.0879891,51.6123033 C87.0879891,40.7794818 95.8673592,32.0001117 106.699622,32.0001117 Z M79.4246737,78.591182 L79.4246737,104.111932 L74.7723054,104.111932 L74.0001675,89.7567543 C74.0001675,84.5192807 75.6996526,81.0404728 79.4246737,78.591182 Z M139.398742,89.7567543 L138.626046,104.111932 L133.975353,104.111932 L133.975353,78.6486876 C137.472585,81.0778793 139.398742,84.6806313 139.398742,89.7567543 Z M106.699622,94.806581 C103.839418,94.806581 101.521888,92.9569114 101.521888,90.6790208 C101.521888,88.3961054 103.839418,86.5458776 106.699622,86.5458776 C109.558152,86.5458776 111.878474,88.3961054 111.878474,90.6790208 C111.878474,92.9569114 109.558152,94.806581 106.699622,94.806581 M129.235107,73.9342915 L84.1646961,73.9342915 C83.4098657,73.9342915 82.7990783,74.5467537 82.7990783,75.3032591 L82.7990783,106.120104 C82.7990783,106.871027 83.4098657,107.485164 84.1646961,107.485164 L129.235107,107.485164 C129.989379,107.485164 130.600725,106.871027 130.600725,106.120104 L130.600725,75.3032591 C130.600725,74.5467537 129.989379,73.9342915 129.235107,73.9342915" id="icon-expert"></path>
                </g>
            </g>
        </g>
    </g>
</svg>