<?xml version="1.0" encoding="UTF-8"?>
<svg width="75px" height="75px" viewBox="0 0 75 75" version="1.1" xmlns="http://www.w3.org/2000/svg" xmlns:xlink="http://www.w3.org/1999/xlink">
    <!-- Generator: Sketch 45.2 (43514) - http://www.bohemiancoding.com/sketch -->
    <title>icon</title>
    <desc>Created with Sketch.</desc>
    <defs></defs>
    <g id="Page-1" stroke="none" stroke-width="1" fill="none" fill-rule="evenodd">
        <g id="Standard---Desktop" transform="translate(-830.000000, -2986.000000)" fill="#FFFFFF">
            <g id="Additional-Resources" transform="translate(-8.000000, 2774.000000)">
                <g id="Get-Enrolled-Today" transform="translate(780.000000, 182.000000)">
                    <path d="M110.309899,94.5577939 L110.309899,84.7775396 L115.729509,79.3579304 L115.729509,94.5577939 C115.729509,99.9610754 111.220748,104.355542 105.681014,104.355542 L68.0493105,104.355542 C62.5084104,104.355542 57.9996501,99.9610754 57.9996501,94.5577939 L57.9996501,39.9628418 C57.9996501,34.5618928 62.5084104,30.1662598 68.0493105,30.1662598 L93.2440202,30.1662598 C94.6586933,30.1662598 96.0185522,30.7120693 97.0308657,31.6858962 L114.097911,48.1114988 C114.53176,48.5290198 114.86531,49.0211814 115.132384,49.544832 L113.343341,51.3350408 L110.304068,54.3731475 L110.304068,54.3743137 L110.036995,54.6425535 L97.9848662,54.6425535 C94.5513974,54.6425535 91.7407114,51.8726865 91.7407114,48.4893669 L91.7407114,35.5088958 L68.0493105,35.5088958 C65.5045317,35.5088958 63.4204255,37.51253 63.4204255,39.9628418 L63.4204255,94.5577939 C63.4204255,97.009272 65.5045317,99.0129063 68.0493105,99.0129063 L105.681014,99.0129063 C108.228126,99.0129063 110.309899,97.009272 110.309899,94.5577939 Z M70.8644283,53.7124613 C70.2579733,53.7124613 69.7623129,53.2237985 69.7623129,52.6255072 L69.7623129,49.6410485 C69.7623129,49.0439235 70.2579733,48.5552606 70.8644283,48.5552606 L86.3150377,48.5552606 C86.9214928,48.5552606 87.4159869,49.0439235 87.4159869,49.6410485 L87.4159869,52.6255072 C87.4159869,53.2237985 86.9214928,53.7124613 86.3150377,53.7124613 L70.8644283,53.7124613 Z M102.867063,60.9178474 C103.116642,60.9178474 103.337066,61.0158132 103.522501,61.1557644 L100.459903,64.2195288 L70.8648948,64.2195288 C70.2584398,64.2195288 69.7616131,63.7296997 69.7616131,63.1325747 L69.7616131,62.0036352 C69.7616131,61.4065102 70.2584398,60.9178474 70.8648948,60.9178474 L102.867063,60.9178474 Z M70.8644283,69.7758236 L94.9010421,69.7758236 L91.600527,73.0763387 L70.8644283,73.0763387 C70.2579733,73.0763387 69.7623129,72.5876759 69.7623129,71.9893846 L69.7623129,70.8627777 C69.7623129,70.2656527 70.2579733,69.7758236 70.8644283,69.7758236 Z M70.8644283,77.8827284 L79.7081761,77.8827284 C80.313465,77.8827284 80.8079591,78.3725575 80.8079591,78.9696825 L80.8079591,80.0962895 C80.8079591,80.6945807 80.313465,81.1832436 79.7081761,81.1832436 L70.8644283,81.1832436 C70.2579733,81.1832436 69.7623129,80.6945807 69.7623129,80.0962895 L69.7623129,78.9696825 C69.7623129,78.3725575 70.2579733,77.8827284 70.8644283,77.8827284 Z M113.342875,57.4123038 L122.470023,66.540619 L122.47119,66.540619 L102.822045,86.1885972 L93.69373,77.0602821 L113.342875,57.4123038 Z M88.0541643,89.3197715 L90.6560898,80.0993218 L99.784405,89.2264707 L90.5616228,91.8283962 C90.3726887,91.8820442 90.1849209,91.9077019 90.0018181,91.9077019 C88.7107685,91.9077019 87.6774624,90.6586377 88.0541643,89.3197715 Z M126.463297,48.5154912 L131.367419,53.4207797 C132.529014,54.5823745 132.529014,56.4833779 131.367419,57.6438063 L125.510463,63.5019292 L116.379815,54.373614 L122.239104,48.5154912 C122.819901,47.9346938 123.584968,47.6442951 124.350034,47.6442951 C125.116267,47.6442951 125.881333,47.9346938 126.463297,48.5154912 Z" id="icon"></path>
                </g>
            </g>
        </g>
    </g>
</svg>