<?xml version="1.0" encoding="UTF-8"?>
<svg width="67px" height="68px" viewBox="0 0 67 68" version="1.1" xmlns="http://www.w3.org/2000/svg" xmlns:xlink="http://www.w3.org/1999/xlink">
    <!-- Generator: Sketch 46 (44423) - http://www.bohemiancoding.com/sketch -->
    <title>icon-talk-to-us</title>
    <desc>Created with Sketch.</desc>
    <defs></defs>
    <g id="Page-1" stroke="none" stroke-width="1" fill="none" fill-rule="evenodd">
        <g id="Family-Stability---Desktop" transform="translate(-627.000000, -2922.000000)" fill="#FFFFFF">
            <g id="Additional-Resources" transform="translate(0.000000, 2712.000000)">
                <g id="Talk-to-us-Icon" transform="translate(553.000000, 174.000000)">
                    <path d="M125.728001,83.164326 L133.987215,92.0093477 C134.948388,93.0385145 135.415092,94.4296733 135.26966,95.83008 C135.124228,97.2291656 134.381203,98.4948162 133.230968,99.3059952 L130.26019,101.394715 C128.035081,103.122764 125.384253,104 122.380421,104 C117.759651,104 112.337683,101.946951 106.265237,97.8936982 C99.9852204,93.7030472 94.5301995,88.3933919 91.060986,84.6770295 C84.4610188,77.6076178 79.2968619,70.1960313 76.5217555,63.8056848 C74.8717637,60.0047696 74.0229698,56.5116796 74.000494,53.4215368 C73.9740518,49.9059875 75.009263,46.8898285 77.0770412,44.4549704 L79.3775105,41.626413 C80.306953,40.4849494 81.6832682,39.8309859 83.1560974,39.8309859 C84.5191916,39.8309859 85.7831276,40.3805795 86.7138922,41.3767179 L94.9717838,50.2230607 C96.5437712,51.9061911 96.6468956,54.5260085 95.2163739,56.3280413 L91.4483638,61.3774324 C91.4483638,61.3774324 91.0424764,68.5697099 99.1470034,77.2509105 C107.205257,85.8819077 114.353899,85.9004037 114.353899,85.9004037 L119.650267,82.4984723 C120.434277,81.9607689 121.350499,81.6767242 122.301095,81.6767242 C123.596761,81.6767242 124.844832,82.2183909 125.728001,83.164326 Z M136.856371,54.5889201 C139.001965,59.1142382 140.088391,63.943011 140.084497,68.9387501 C140.083199,70.3182102 138.987687,71.4366197 137.637767,71.4366197 L137.635171,71.4366197 C136.282655,71.4352946 135.187143,70.3142348 135.188441,68.9347748 C135.192335,64.7009852 134.269457,60.6063343 132.448364,56.7661083 C127.882,47.132415 118.526017,41.0898234 108.032987,40.9983894 C106.680471,40.9864632 105.594045,39.8574527 105.605727,38.4779926 C105.617409,37.1051582 106.710325,36 108.053755,36 C108.060245,36 108.068033,36 108.074523,36 C114.00119,36.0516801 119.799355,37.7677231 124.844681,40.9599606 C130.031488,44.2436322 134.185087,48.9557935 136.856371,54.5889201 Z M121.94652,61.7613229 C119.170184,56.0801034 113.480475,52.4983515 107.100305,52.4148426 C105.728608,52.3978798 104.629669,51.2809474 104.648116,49.9226218 C104.666564,48.5629914 105.793174,47.4825941 107.166188,47.4930328 C111.1337,47.5452259 115.012928,48.6725969 118.384851,50.7524922 C121.854283,52.8937143 124.633254,55.9587544 126.421336,59.6161862 C127.862869,62.5690112 128.594178,65.7175602 128.591542,68.9770196 C128.590225,70.3353452 127.478109,71.4366197 126.106412,71.4366197 L126.103777,71.4366197 C124.73208,71.4353149 123.621282,70.3314307 123.621282,68.9731052 C123.622599,66.4639216 123.059953,64.0382471 121.94652,61.7613229 Z" id="icon-talk-to-us"></path>
                </g>
            </g>
        </g>
    </g>
</svg>