<?xml version="1.0" encoding="UTF-8"?>
<svg width="81px" height="64px" viewBox="0 0 81 64" version="1.1" xmlns="http://www.w3.org/2000/svg" xmlns:xlink="http://www.w3.org/1999/xlink">
    <!-- Generator: Sketch 45.2 (43514) - http://www.bohemiancoding.com/sketch -->
    <title>icon-blog</title>
    <desc>Created with Sketch.</desc>
    <defs>
        <path d="M82.519885,62.4879099 C82.519885,60.5110306 84.1219776,58.9105465 86.0972484,58.9105465 C88.0733235,58.9105465 89.6754161,60.5110306 89.6754161,62.4879099 C89.6754161,64.4655935 88.0733235,66.0660775 86.0972484,66.0660775 C84.1219776,66.0660775 82.519885,64.4655935 82.519885,62.4879099 Z M71.9494518,62.4879099 C71.9494518,60.5110306 73.5531529,58.9105465 75.5276194,58.9105465 C77.505303,58.9105465 79.1073956,60.5110306 79.1073956,62.4879099 C79.1073956,64.4655935 77.505303,66.0660775 75.5276194,66.0660775 C73.5531529,66.0660775 71.9494518,64.4655935 71.9494518,62.4879099 Z M61.3846484,62.4879099 C61.3846484,60.5110306 62.9843282,58.9105465 64.9620118,58.9105465 C66.9380868,58.9105465 68.5393752,60.5110306 68.5393752,62.4879099 C68.5393752,64.4655935 66.9380868,66.0660775 64.9620118,66.0660775 C62.9843282,66.0660775 61.3846484,64.4655935 61.3846484,62.4879099 Z M102.965868,55.4023498 C103.859405,55.3243362 104.767418,55.284123 105.686691,55.284123 C119.771755,55.284123 131.218835,64.4937427 131.426335,75.9166951 L131.426335,76.5488461 C131.303283,83.2925943 127.269902,89.2626411 121.089138,93.0241808 C120.789148,93.2075529 125.03968,100.336543 124.389835,100.807842 C123.753663,101.268684 114.407318,97.2763212 111.684083,96.6103911 C109.760285,96.9900034 107.750431,97.1878522 105.686691,97.1878522 C97.7478073,97.1878522 90.652596,94.2635507 85.9307659,89.6687941 L91.2027122,89.6687941 C97.6858791,89.6687941 102.965868,84.3904138 102.965868,77.9032256 L102.965868,55.4023498 Z M59.8549395,37.7013176 L91.2035164,37.7013176 C96.0870035,37.7013176 100.05926,41.6743786 100.05926,46.5586699 L100.05926,77.901617 C100.05926,82.7891254 96.0870035,86.7637949 91.2035164,86.7637949 L83.3868809,86.7637949 L54.2307259,97.8795187 L59.2026819,86.7380585 C54.6232064,86.4042892 51.0008043,82.5695615 51.0008043,77.901617 L51.0008043,46.5586699 C51.0008043,41.6743786 54.9738652,37.7013176 59.8549395,37.7013176 Z M55.2151442,77.901617 C55.2151442,80.4664129 57.2965778,82.5478464 59.8549395,82.5478464 L65.6882616,82.5478464 L62.2178652,90.3242688 L82.6115711,82.5478464 L91.2035164,82.5478464 C93.7602696,82.5478464 95.844116,80.4664129 95.844116,77.901617 L95.844116,46.5586699 C95.844116,43.9970912 93.7602696,41.9148533 91.2035164,41.9148533 L59.8549395,41.9148533 C57.2965778,41.9148533 55.2151442,43.9970912 55.2151442,46.5586699 L55.2151442,77.901617 Z" id="path-1"></path>
    </defs>
    <g id="Page-1" stroke="none" stroke-width="1" fill="none" fill-rule="evenodd">
        <g id="Standard---Desktop" transform="translate(-423.000000, -2928.000000)">
            <g id="Additional-Resources" transform="translate(0.000000, 2709.000000)">
                <g id="Expert-Blog-Icon" transform="translate(372.000000, 182.000000)">
                    <mask id="mask-2" fill="white">
                        <use xlink:href="#path-1"></use>
                    </mask>
                    <use id="icon-blog" fill="#FFFFFF" xlink:href="#path-1"></use>
                </g>
            </g>
        </g>
    </g>
</svg>